HIERARCHY
ROOT pelvis
{
	OFFSET 0.003123 -0.351407 0.012037
	CHANNELS 6 Xposition Yposition Zposition Zrotation Yrotation Xrotation 
	JOINT left_hip
	{
		OFFSET 0.058189 -0.092763 -0.026001
		CHANNELS 3 Zrotation Yrotation Xrotation
		JOINT left_knee
		{
			OFFSET 0.054695 -0.378753 -0.009396
			CHANNELS 3 Zrotation Yrotation Xrotation
			JOINT left_ankle
			{
				OFFSET -0.043453 -0.403059 -0.031876
				CHANNELS 3 Zrotation Yrotation Xrotation
				JOINT left_foot
				{
					OFFSET 0.047257 -0.057997 0.118216
					CHANNELS 3 Zrotation Yrotation Xrotation
					End Site
					{
						OFFSET 0.000000 0.000000 0.000000
					}
				}
			}
		}
	}
	JOINT right_hip
	{
		OFFSET -0.063267 -0.103908 -0.021250
		CHANNELS 3 Zrotation Yrotation Xrotation
		JOINT right_knee
		{
			OFFSET -0.044210 -0.362380 -0.016824
			CHANNELS 3 Zrotation Yrotation Xrotation
			JOINT right_ankle
			{
				OFFSET 0.015417 -0.410728 -0.020192
				CHANNELS 3 Zrotation Yrotation Xrotation
				JOINT right_foot
				{
					OFFSET -0.038812 -0.058328 0.119049
					CHANNELS 3 Zrotation Yrotation Xrotation
					End Site
					{
						OFFSET 0.000000 0.000000 0.000000
					}
				}
			}
		}
	}
	JOINT spine_1
	{
		OFFSET -0.002763 0.109891 -0.027618
		CHANNELS 3 Zrotation Yrotation Xrotation
		JOINT spine_2
		{
			OFFSET 0.009448 0.131853 -0.005940
			CHANNELS 3 Zrotation Yrotation Xrotation
			JOINT spine_3
			{
				OFFSET -0.011330 0.052235 0.028447
				CHANNELS 3 Zrotation Yrotation Xrotation
				JOINT neck
				{
					OFFSET -0.012164 0.165167 -0.031615
					CHANNELS 3 Zrotation Yrotation Xrotation
					JOINT head
					{
						OFFSET 0.024783 0.160452 0.020737
						CHANNELS 3 Zrotation Yrotation Xrotation
						End Site
						{
							OFFSET 0.000000 0.000000 0.000000
						}
					}
				}
				JOINT left_collar
				{
					OFFSET 0.046364 0.084944 -0.007220
					CHANNELS 3 Zrotation Yrotation Xrotation
					JOINT left_shoulder
					{
						OFFSET 0.119239 0.057728 -0.015461
						CHANNELS 3 Zrotation Yrotation Xrotation
						JOINT left_elbow
						{
							OFFSET 0.254123 -0.072151 -0.042459
							CHANNELS 3 Zrotation Yrotation Xrotation
							JOINT left_wrist
							{
								OFFSET 0.251987 0.023221 -0.002472
								CHANNELS 3 Zrotation Yrotation Xrotation
								JOINT left_index_1
								{
									OFFSET 0.101902 -0.008688 0.019351
									CHANNELS 3 Zrotation Yrotation Xrotation
									JOINT left_index_2
									{
										OFFSET 0.030149 -0.011154 0.001151
										CHANNELS 3 Zrotation Yrotation Xrotation
										JOINT left_index_3
										{
											OFFSET 0.006504 -0.021577 -0.002433
											CHANNELS 3 Zrotation Yrotation Xrotation
											End Site
											{
												OFFSET 0.000000 0.000000 0.000000
											}
										}
									}
								}
								JOINT left_middle_1
								{
									OFFSET 0.109398 -0.006328 -0.003981
									CHANNELS 3 Zrotation Yrotation Xrotation
									JOINT left_middle_2
									{
										OFFSET 0.026472 -0.015218 -0.004641
										CHANNELS 3 Zrotation Yrotation Xrotation
										JOINT left_middle_3
										{
											OFFSET 0.005022 -0.023347 -0.001911
											CHANNELS 3 Zrotation Yrotation Xrotation
											End Site
											{
												OFFSET 0.000000 0.000000 0.000000
											}
										}
									}
								}
								JOINT left_pinky_1
								{
									OFFSET 0.084047 -0.014539 -0.043750
									CHANNELS 3 Zrotation Yrotation Xrotation
									JOINT left_pinky_2
									{
										OFFSET 0.012124 -0.014448 -0.005375
										CHANNELS 3 Zrotation Yrotation Xrotation
										JOINT left_pinky_3
										{
											OFFSET 0.003798 -0.018853 0.000167
											CHANNELS 3 Zrotation Yrotation Xrotation
											End Site
											{
												OFFSET 0.000000 0.000000 0.000000
											}
										}
									}
								}
								JOINT left_ring_1
								{
									OFFSET 0.097444 -0.009268 -0.027345
									CHANNELS 3 Zrotation Yrotation Xrotation
									JOINT left_ring_2
									{
										OFFSET 0.023561 -0.016057 -0.001895
										CHANNELS 3 Zrotation Yrotation Xrotation
										JOINT left_ring_3
										{
											OFFSET 0.004257 -0.023548 0.000814
											CHANNELS 3 Zrotation Yrotation Xrotation
											End Site
											{
												OFFSET 0.000000 0.000000 0.000000
											}
										}
									}
								}
								JOINT left_thumb_1
								{
									OFFSET 0.040636 -0.017977 0.025611
									CHANNELS 3 Zrotation Yrotation Xrotation
									JOINT left_thumb_2
									{
										OFFSET 0.021637 -0.017639 0.011623
										CHANNELS 3 Zrotation Yrotation Xrotation
										JOINT left_thumb_3
										{
											OFFSET 0.024002 -0.008356 0.006548
											CHANNELS 3 Zrotation Yrotation Xrotation
											End Site
											{
												OFFSET 0.000000 0.000000 0.000000
											}
										}
									}
								}
							}
						}
					}
				}
				JOINT right_collar
				{
					OFFSET -0.047695 0.084339 -0.013400
					CHANNELS 3 Zrotation Yrotation Xrotation
					JOINT right_shoulder
					{
						OFFSET -0.102578 0.053524 -0.012669
						CHANNELS 3 Zrotation Yrotation Xrotation
						JOINT right_elbow
						{
							OFFSET -0.271150 -0.036492 -0.026467
							CHANNELS 3 Zrotation Yrotation Xrotation
							JOINT right_wrist
							{
								OFFSET -0.249267 -0.004533 -0.015325
								CHANNELS 3 Zrotation Yrotation Xrotation
								JOINT right_index_1
								{
									OFFSET -0.099881 -0.011783 0.019600
									CHANNELS 3 Zrotation Yrotation Xrotation
									JOINT right_index_2
									{
										OFFSET -0.030148 -0.011154 0.001151
										CHANNELS 3 Zrotation Yrotation Xrotation
										JOINT right_index_3
										{
											OFFSET -0.006505 -0.021577 -0.002432
											CHANNELS 3 Zrotation Yrotation Xrotation
											End Site
											{
												OFFSET 0.000000 0.000000 0.000000
											}
										}
									}
								}
								JOINT right_middle_1
								{
									OFFSET -0.107376 -0.009422 -0.003734
									CHANNELS 3 Zrotation Yrotation Xrotation
									JOINT right_middle_2
									{
										OFFSET -0.026472 -0.015218 -0.004641
										CHANNELS 3 Zrotation Yrotation Xrotation
										JOINT right_middle_3
										{
											OFFSET -0.005022 -0.023347 -0.001911
											CHANNELS 3 Zrotation Yrotation Xrotation
											End Site
											{
												OFFSET 0.000000 0.000000 0.000000
											}
										}
									}
								}
								JOINT right_pinky_1
								{
									OFFSET -0.082027 -0.017634 -0.043503
									CHANNELS 3 Zrotation Yrotation Xrotation
									JOINT right_pinky_2
									{
										OFFSET -0.012123 -0.014448 -0.005374
										CHANNELS 3 Zrotation Yrotation Xrotation
										JOINT right_pinky_3
										{
											OFFSET -0.003798 -0.018852 0.000167
											CHANNELS 3 Zrotation Yrotation Xrotation
											End Site
											{
												OFFSET 0.000000 0.000000 0.000000
											}
										}
									}
								}
								JOINT right_ring_1
								{
									OFFSET -0.095423 -0.012362 -0.027099
									CHANNELS 3 Zrotation Yrotation Xrotation
									JOINT right_ring_2
									{
										OFFSET -0.023561 -0.016057 -0.001895
										CHANNELS 3 Zrotation Yrotation Xrotation
										JOINT right_ring_3
										{
											OFFSET -0.004257 -0.023548 0.000816
											CHANNELS 3 Zrotation Yrotation Xrotation
											End Site
											{
												OFFSET 0.000000 0.000000 0.000000
											}
										}
									}
								}
								JOINT right_thumb_1
								{
									OFFSET -0.038613 -0.021074 0.025861
									CHANNELS 3 Zrotation Yrotation Xrotation
									JOINT right_thumb_2
									{
										OFFSET -0.021636 -0.017639 0.011623
										CHANNELS 3 Zrotation Yrotation Xrotation
										JOINT right_thumb_3
										{
											OFFSET -0.024004 -0.008353 0.006547
											CHANNELS 3 Zrotation Yrotation Xrotation
											End Site
											{
												OFFSET 0.000000 0.000000 0.000000
											}
										}
									}
								}
							}
						}
					}
				}
			}
		}
	}
}
MOTION
Frames: 5
Frame Time: 0.050000
0.049023 0.965277 -0.017891 -2.010981 -6.638867 -9.815953 0.961956 1.234145 8.576234 -3.275233 0.296035 0.412289 -4.148282 -2.663127 7.211755 0.000000 0.000000 0.000000 -4.669841 -0.584378 11.344180 1.324343 -0.109416 -2.785983 -3.616510 -13.765867 15.218450 0.000000 0.000000 0.000000 0.892828 -1.057440 13.511146 -10.453920 -0.826175 -20.209731 8.969578 0.045021 26.883302 -0.493478 1.511103 -10.266067 0.000000 0.000000 0.000000 -12.775267 3.401337 -2.906466 -56.259959 -6.665640 -8.386829 -31.343036 -56.537423 24.808037 5.808664 3.602581 -14.731352 10.622352 6.297186 2.377233 14.443125 -0.951806 -4.304551 0.000000 0.000000 0.000000 8.495254 1.836191 2.790464 2.493756 -0.121719 -0.916301 0.000000 0.000000 0.000000 10.413860 -11.988090 -16.258998 -7.308789 2.151418 6.248853 0.000000 0.000000 0.000000 -0.779963 -2.911883 -2.037874 0.211538 -2.047144 -8.268138 0.000000 0.000000 0.000000 12.475284 17.346818 7.215838 -10.277336 -7.371468 0.131324 0.000000 0.000000 0.000000 7.535169 1.540037 -0.170074 51.298933 9.430578 -4.266985 34.831562 53.641405 15.423097 2.344951 -3.528642 -1.418707 18.396211 1.883045 0.333117 -9.526964 1.235531 -1.367209 0.000000 0.000000 0.000000 26.631162 1.725588 -4.615115 4.011502 -1.520621 4.638681 0.000000 0.000000 0.000000 -7.040045 14.417265 -18.129948 25.793046 -2.744138 6.291350 0.000000 0.000000 0.000000 22.464347 2.390703 -2.539329 5.338912 1.110783 -3.495318 0.000000 0.000000 0.000000 -7.570537 -15.989154 11.329194 4.153203 3.817868 -0.104830 0.000000 0.000000 0.000000 
0.046667 0.964954 -0.013931 -2.215288 -7.802830 -9.402516 1.490040 1.278500 9.046888 -3.657872 0.434147 -0.728629 -3.828046 -1.844458 7.672706 0.000000 0.000000 0.000000 -4.205235 -0.600751 11.081355 1.054538 -0.103378 -2.920566 -3.165711 -13.090935 14.751496 0.000000 0.000000 0.000000 0.570678 -0.908376 11.420675 -10.462453 -0.586564 -19.181205 9.138203 -0.505819 26.680203 -0.364766 1.416433 -9.823599 0.000000 0.000000 0.000000 -12.729288 4.756376 -3.584393 -56.099940 -5.385208 -8.446575 -32.580064 -56.895340 25.900876 5.776319 3.179028 -15.617448 9.864507 6.297521 2.326982 13.037347 -0.923417 -4.609038 0.000000 0.000000 0.000000 7.379901 1.653006 2.418573 2.206839 -0.157629 -1.137100 0.000000 0.000000 0.000000 10.335513 -11.190389 -15.119248 -5.724151 1.489124 4.445551 0.000000 0.000000 0.000000 -1.201926 -2.834748 -1.975162 -1.894208 -2.397627 -8.017831 0.000000 0.000000 0.000000 12.595947 17.491154 7.097283 -9.552034 -7.205480 -0.089125 0.000000 0.000000 0.000000 7.614283 3.710360 1.009309 51.083834 9.248337 -4.520469 33.010255 53.983387 14.468315 2.981047 -2.964361 -3.177761 18.582871 2.495488 0.288232 -7.822351 0.886639 -0.698385 0.000000 0.000000 0.000000 27.955123 2.332080 -4.831402 3.750034 -1.811812 5.917405 0.000000 0.000000 0.000000 -6.149880 14.106330 -18.268742 22.827253 -2.983685 7.015412 0.000000 0.000000 0.000000 23.893047 2.760007 -2.613262 5.101480 1.064794 -3.139959 0.000000 0.000000 0.000000 -6.802021 -16.397969 11.787598 2.812312 3.310728 -0.369837 0.000000 0.000000 0.000000 
0.048552 0.964632 -0.015251 -2.250598 -7.784799 -9.596229 1.364336 1.292393 9.073090 -3.557352 0.412203 -0.570705 -3.777386 -1.852757 7.532822 0.000000 0.000000 0.000000 -4.319408 -0.586968 11.118856 1.139209 -0.101342 -2.774372 -3.190359 -13.123362 14.751073 0.000000 0.000000 0.000000 0.697943 -0.934386 11.741142 -10.629736 -0.351112 -18.603018 9.483722 0.462519 25.779523 -0.331669 1.340858 -9.233735 0.000000 0.000000 0.000000 -12.397446 3.139105 -2.662995 -56.329626 -5.137333 -8.585465 -32.495320 -58.458779 26.521705 5.824862 2.749697 -16.970666 5.154054 5.928323 1.924589 7.983731 -0.873416 -4.538411 0.000000 0.000000 0.000000 2.168904 -0.514015 0.058760 -0.287808 -0.253248 -1.368328 0.000000 0.000000 0.000000 10.441475 -11.864092 -16.332482 -5.905036 1.760955 5.232543 0.000000 0.000000 0.000000 -2.409354 -4.471876 -3.071998 -0.561009 -2.033114 -7.497797 0.000000 0.000000 0.000000 14.061342 17.250652 6.059612 -11.090503 -6.581124 0.574100 0.000000 0.000000 0.000000 7.664868 1.888549 -0.024131 51.069241 8.517047 -4.541077 33.686173 54.364198 15.032312 2.895802 -2.892003 -5.002793 17.755642 1.807816 0.452487 -8.586223 1.359979 -3.057356 0.000000 0.000000 0.000000 27.243561 2.170455 -4.520057 3.548357 -1.100022 3.447481 0.000000 0.000000 0.000000 -6.812870 13.597038 -17.875134 22.861842 -2.934908 6.823650 0.000000 0.000000 0.000000 23.481958 2.793153 -2.427934 5.402631 1.135419 -3.055843 0.000000 0.000000 0.000000 -7.928848 -16.426511 10.983788 3.831380 3.905716 -0.317480 0.000000 0.000000 0.000000 
0.049023 0.964632 -0.015251 -2.248981 -7.920765 -10.283966 1.403269 1.369011 9.577853 -3.613713 0.381321 -0.061814 -3.690437 -1.877435 7.289913 0.000000 0.000000 0.000000 -4.396986 -0.624091 11.928664 1.149753 -0.103315 -2.892248 -3.064542 -12.947796 14.710376 0.000000 0.000000 0.000000 0.391579 -0.992377 12.778665 -10.448658 -0.873434 -20.146285 9.586734 0.684848 27.380810 -0.110569 1.347060 -9.446878 0.000000 0.000000 0.000000 -12.435157 4.004090 -3.214736 -56.210865 -5.745821 -8.547219 -33.626829 -59.120739 27.657487 5.403216 1.766057 -18.772749 -0.873288 5.149123 1.489668 -3.463669 -1.425387 -5.332323 0.000000 0.000000 0.000000 -6.667805 -2.580253 -2.057684 -9.915280 -1.403886 -3.820772 0.000000 0.000000 0.000000 9.059378 -11.969555 -16.926607 -6.656924 1.756715 4.969472 0.000000 0.000000 0.000000 -6.757330 -5.829549 -3.658412 -4.848443 -3.614936 -9.615938 0.000000 0.000000 0.000000 14.785205 17.324415 5.393225 -11.102153 -7.400999 0.234409 0.000000 0.000000 0.000000 7.610708 2.379042 0.305730 51.049724 8.494337 -4.622348 32.537846 56.247713 15.229702 3.202899 -1.933880 -10.650226 17.293845 2.734747 0.474939 -7.109101 1.190944 -3.919717 0.000000 0.000000 0.000000 27.026278 3.222558 -4.302277 5.056694 -0.910039 2.765013 0.000000 0.000000 0.000000 -5.784398 13.549680 -19.144913 19.286112 -2.680507 6.335947 0.000000 0.000000 0.000000 24.092039 3.727460 -2.260308 2.931456 1.565061 -4.793351 0.000000 0.000000 0.000000 -8.946221 -15.989236 8.878105 5.684605 3.656577 0.124407 0.000000 0.000000 0.000000 
0.048787 0.964310 -0.013931 -2.388419 -8.446105 -10.079498 1.639151 1.376841 9.708561 -3.819188 0.436348 -0.435454 -3.456771 -1.507969 7.273516 0.000000 0.000000 0.000000 -4.179397 -0.605124 11.329694 1.052285 -0.085137 -2.163089 -2.964976 -12.683172 14.240826 0.000000 0.000000 0.000000 0.294080 -0.940100 11.958621 -10.271245 -0.848370 -19.740845 9.325260 -0.019681 27.188052 -0.112212 1.246957 -8.866285 0.000000 0.000000 0.000000 -12.520390 5.234799 -3.865934 -56.114853 -4.245185 -8.692756 -36.259137 -61.165928 30.688072 5.032446 0.554313 -20.965477 -5.176430 3.738770 1.150910 -10.573891 -2.279441 -6.279567 0.000000 0.000000 0.000000 -13.126158 -5.788306 -3.700920 -15.746645 -2.343618 -5.039017 0.000000 0.000000 0.000000 6.645180 -12.717470 -18.297552 -8.749227 1.567638 4.251378 0.000000 0.000000 0.000000 -11.582326 -8.153225 -4.445202 -7.680255 -5.019805 -11.547796 0.000000 0.000000 0.000000 15.007812 17.528424 5.110843 -10.911541 -8.132889 -0.136230 0.000000 0.000000 0.000000 7.533583 3.210881 0.724317 51.068629 7.864630 -4.993961 32.811579 58.976739 16.239406 3.244547 -0.538723 -16.180951 16.750897 4.251055 0.398745 -5.857031 1.232859 -5.505840 0.000000 0.000000 0.000000 27.895336 5.292112 -4.441125 4.393174 -0.211462 0.791505 0.000000 0.000000 0.000000 -5.112098 13.853259 -20.435385 15.341793 -2.292825 5.613419 0.000000 0.000000 0.000000 25.068144 6.247661 -2.750993 1.767007 1.845859 -5.727066 0.000000 0.000000 0.000000 -10.278553 -15.968106 7.075602 7.139636 4.183831 0.167305 0.000000 0.000000 0.000000 
